<svg width="322" height="359" viewBox="0 0 322 359" fill="none" xmlns="http://www.w3.org/2000/svg">
<path d="M213.526 8.8626C208.111 6.97434 202.56 5.42328 196.942 4.07452C110.297 -15.6848 23.9233 38.3329 4.08982 124.721C-15.7437 211.041 38.4769 297.092 125.189 316.851C149.761 322.449 174.265 322.044 197.213 316.716C178.056 343.489 154.567 359 154.567 359C230.517 341.668 294.146 284.144 315.672 204.972C316.146 203.421 316.552 201.87 316.958 200.251C317.297 198.902 317.635 197.554 317.906 196.205C318.177 194.856 318.515 193.507 318.786 192.159C334.896 112.852 289.002 34.6913 213.458 8.8626H213.526Z" fill="#3ECE9E"/>
<path d="M58.8944 146.195C55.0661 146.195 51.9601 148.991 51.9601 152.436V165.536C51.9601 165.613 51.9096 165.804 51.8086 166.113C51.7076 166.422 51.3743 166.577 50.8036 166.577C50.2329 166.577 49.8995 166.422 49.7985 166.113C49.6975 165.804 49.647 165.613 49.647 165.536V152.436C49.647 148.991 46.541 146.195 42.7127 146.195C38.8845 146.195 35.7734 148.991 35.7734 152.436V166.154C35.7734 167.491 36.0512 168.772 36.6068 170.009C37.1623 171.24 38.0259 172.345 39.1976 173.322C40.3693 174.3 41.8794 175.068 43.738 175.636C45.5915 176.199 47.8187 176.486 50.4147 176.486C53.354 176.486 55.8136 176.209 57.7984 175.659C59.7833 175.109 61.359 174.35 62.5307 173.386C63.7024 172.422 64.5408 171.318 65.0559 170.072C65.5711 168.827 65.8286 167.495 65.8286 166.086V152.445C65.8286 149 62.7226 146.204 58.8944 146.204V146.195Z" fill="white"/>
<path d="M113.235 146.312H95.1241C91.6141 146.312 88.7656 148.876 88.7656 152.035C88.7656 155.194 91.6141 157.758 95.1241 157.758H97.0736V170.262C97.0736 173.421 99.9221 175.985 103.432 175.985H104.973C108.483 175.985 111.331 173.421 111.331 170.262V157.758H113.235C116.745 157.758 119.594 155.194 119.594 152.035C119.594 148.876 116.745 146.312 113.235 146.312Z" fill="white"/>
<path d="M140.671 153.982C138.247 152.364 134.979 151.555 130.868 151.555C127.101 151.555 124.09 152.286 121.833 153.75C119.58 155.214 118.222 157.246 117.767 159.836C117.681 160.173 117.616 160.691 117.575 161.395C117.535 162.1 117.51 162.905 117.51 163.805C117.51 164.705 117.53 165.536 117.575 166.232C117.616 166.927 117.681 167.441 117.767 167.773C118.252 170.545 119.616 172.704 121.858 174.245C124.101 175.786 127.101 176.559 130.868 176.559C135.121 176.559 138.434 175.782 140.802 174.227C140.929 174.15 141.045 174.068 141.161 173.982C144.656 171.436 142.484 166.309 137.989 166.309H133.525C132.909 166.309 132.414 166.759 132.414 167.309C132.414 167.859 131.934 168.332 131.323 168.35C130.51 168.368 130.101 168.023 130.101 167.309V165.15H139.605C142.302 165.15 144.484 163.182 144.484 160.759C144.368 157.855 143.1 155.596 140.676 153.977L140.671 153.982ZM132.409 162.382H130.095V160.995C130.095 160.445 130.575 159.973 131.186 159.955C131.999 159.936 132.409 160.282 132.409 160.995V162.382Z" fill="white"/>
<path d="M254.314 153.982C251.889 152.364 248.622 151.555 244.511 151.555C240.743 151.555 237.733 152.286 235.476 153.75C233.223 155.214 231.864 157.246 231.41 159.836C231.324 160.173 231.258 160.691 231.218 161.395C231.178 162.1 231.152 162.905 231.152 163.805C231.152 164.705 231.173 165.536 231.218 166.232C231.258 166.927 231.324 167.441 231.41 167.773C231.895 170.545 233.258 172.704 235.501 174.245C237.743 175.786 240.743 176.559 244.511 176.559C248.763 176.559 252.076 175.782 254.445 174.227C254.571 174.15 254.687 174.068 254.804 173.982C258.298 171.436 256.127 166.309 251.632 166.309H247.167C246.551 166.309 246.056 166.759 246.056 167.309C246.056 167.859 245.576 168.332 244.965 168.35C244.152 168.368 243.743 168.023 243.743 167.309V165.15H253.248C255.945 165.15 258.127 163.182 258.127 160.759C258.011 157.855 256.743 155.596 254.319 153.977L254.314 153.982ZM246.051 162.382H243.738V160.995C243.738 160.445 244.218 159.973 244.829 159.955C245.642 159.936 246.051 160.282 246.051 160.995V162.382Z" fill="white"/>
<path d="M171.756 159.838C171.756 157.116 170.68 155.043 168.523 153.616C166.367 152.189 163.322 151.479 159.382 151.479C157.554 151.479 155.549 151.634 153.367 151.943C152.801 152.025 152.226 152.116 151.64 152.22C148.61 152.757 146.493 155.239 146.751 158.007C146.913 159.757 148.867 160.898 150.711 160.32L150.756 160.307C152.312 159.82 154.231 159.575 156.514 159.575C156.998 159.575 157.493 159.593 157.988 159.634C158.488 159.67 159.008 159.716 159.549 159.77C159.862 159.798 160.125 159.911 160.342 160.116C160.554 160.32 160.635 160.643 160.579 161.079C159.923 161.029 159.301 160.988 158.715 160.966C158.13 160.938 157.554 160.929 156.983 160.929C152.902 160.929 150.003 161.493 148.291 162.625C146.579 163.757 145.721 165.552 145.721 168.02V169.87C145.721 171.052 145.978 172.152 146.493 173.166C147.009 174.179 147.877 175.011 149.104 175.652C150.332 176.293 152.003 176.616 154.115 176.616C155.655 176.616 156.882 176.388 157.796 175.943C158.71 175.493 159.372 174.952 159.786 174.325C160.2 173.697 160.407 173.111 160.407 172.57H160.791C160.801 174.779 162.816 176.588 165.271 176.588H167.079C169.756 176.588 171.887 174.57 171.751 172.166V172.12V159.852L171.756 159.838ZM159.726 168.738C159.726 168.816 159.675 169.007 159.574 169.316C159.473 169.625 159.14 169.779 158.569 169.779C157.998 169.779 157.665 169.625 157.564 169.316C157.463 169.007 157.412 168.816 157.412 168.738V166.311C157.412 166.207 157.463 166.011 157.564 165.716C157.665 165.42 157.998 165.27 158.569 165.27C159.14 165.27 159.473 165.42 159.574 165.716C159.675 166.011 159.726 166.211 159.726 166.311V168.738Z" fill="white"/>
<path d="M228.307 154.286C227.767 153.414 226.964 152.727 225.908 152.223C224.853 151.723 223.469 151.473 221.757 151.473C220.045 151.473 218.58 151.864 217.282 152.65C215.984 153.432 215.231 154.623 215.035 156.214H214.651V150.882C214.651 147.632 211.726 145 208.115 145C204.494 145 201.565 147.65 201.58 150.909L201.686 170.136C201.706 173.368 204.621 175.977 208.211 175.977C211.812 175.977 214.737 173.35 214.737 170.104V161.682C214.737 161.604 214.787 161.413 214.888 161.104C214.989 160.795 215.322 160.641 215.893 160.641C216.464 160.641 216.797 160.795 216.898 161.104C216.999 161.413 217.05 161.604 217.05 161.682V170.254C217.05 173.413 219.898 175.977 223.408 175.977C226.918 175.977 229.767 173.413 229.767 170.254V160.795C229.736 159.563 229.625 158.386 229.423 157.268C229.221 156.15 228.853 155.154 228.312 154.282L228.307 154.286Z" fill="white"/>
<path d="M78.15 155.455C77.7459 155.328 77.3318 155.223 76.9126 155.132C70.448 153.8 64.0037 157.441 62.5239 163.264C61.0441 169.082 65.0895 174.882 71.5591 176.214C73.3925 176.591 75.2207 176.564 76.9328 176.205C75.5035 178.009 73.751 179.054 73.751 179.054C79.4176 177.886 84.165 174.009 85.7711 168.673C85.8064 168.568 85.8367 168.464 85.8671 168.355C85.8923 168.264 85.9176 168.173 85.9378 168.082C85.958 167.991 85.9832 167.9 86.0034 167.809C87.2054 162.464 83.7812 157.196 78.1449 155.455H78.15Z" fill="#FFD72E"/>
<path d="M67.7539 164.444C67.7539 164.035 67.3853 163.703 66.9306 163.703C66.476 163.703 66.1074 164.035 66.1074 164.444V165.18C66.1074 165.59 66.476 165.921 66.9306 165.921C67.3853 165.921 67.7539 165.59 67.7539 165.18V164.444Z" fill="white"/>
<path d="M73.0625 164.444C73.0625 164.035 72.6939 163.703 72.2392 163.703C71.7846 163.703 71.416 164.035 71.416 164.444V165.18C71.416 165.59 71.7846 165.921 72.2392 165.921C72.6939 165.921 73.0625 165.59 73.0625 165.18V164.444Z" fill="white"/>
<path d="M66.9258 167.955C66.9258 167.955 66.9763 170.287 69.5823 170.287C72.1883 170.287 72.2388 167.955 72.2388 167.955" stroke="white" stroke-width="1.71" stroke-miterlimit="10" stroke-linecap="round"/>
<path d="M280.055 151.534C280.055 151.534 280.05 151.534 280.045 151.534C280.04 151.534 280.03 151.534 280.025 151.534C279.535 151.498 279.121 151.479 278.783 151.479C277.268 151.479 276.03 151.779 275.055 152.384C274.086 152.989 273.323 153.711 272.762 154.561C272.207 155.411 271.823 156.225 271.606 157.007C271.394 157.789 271.283 158.361 271.283 158.72H270.939C270.929 158.284 270.773 157.234 270.555 156.084C270.121 153.775 267.894 152.093 265.293 152.093H265.146C262.071 152.093 259.591 154.352 259.631 157.12C259.687 161.07 259.737 166.538 259.768 170.575C259.793 173.575 262.495 175.993 265.823 176.002C269.187 176.011 271.924 173.561 271.924 170.529V166.347C271.924 165.629 272.172 165.075 272.672 164.688C273.172 164.302 273.778 164.034 274.49 163.879C275.202 163.725 275.874 163.648 276.5 163.648C277.091 163.648 277.616 163.684 278.086 163.752C278.257 163.775 278.419 163.807 278.576 163.838C278.939 163.893 279.308 163.925 279.687 163.925C279.909 163.925 280.131 163.916 280.353 163.893C283.848 163.593 286.586 160.943 286.586 157.716C286.586 154.489 283.692 151.698 280.05 151.529L280.055 151.534Z" fill="white"/>
<path d="M198.228 155.231C197.127 154.013 195.572 153.081 193.561 152.435C191.551 151.794 189.157 151.472 186.39 151.472C184.021 151.472 181.865 151.794 179.925 152.435C177.986 153.076 176.42 154.022 175.238 155.267C174.052 156.513 173.405 158.022 173.289 159.794C173.259 160.126 173.238 160.649 173.223 161.353C173.208 162.062 173.203 162.876 173.203 163.799C173.203 164.722 173.208 165.59 173.223 166.322C173.238 167.053 173.259 167.599 173.289 167.958C173.405 169.781 174.052 171.335 175.238 172.621C176.42 173.908 177.986 174.88 179.925 175.549C181.865 176.217 184.021 176.549 186.39 176.549C190.642 176.549 193.955 175.785 196.324 174.258C198.693 172.731 199.88 170.603 199.88 167.881C199.88 165.944 198.137 164.376 195.986 164.376H189.551C188.663 164.376 187.94 165.026 187.94 165.826V165.994C187.94 166.544 187.461 167.017 186.849 167.035C186.036 167.053 185.627 166.708 185.627 165.994V161.681C185.627 161.131 186.107 160.658 186.718 160.64C187.531 160.622 187.94 160.967 187.94 161.681C187.94 162.481 188.663 163.131 189.551 163.131H196.001C198.147 163.131 199.885 161.567 199.885 159.635C199.885 157.913 199.334 156.444 198.238 155.222L198.228 155.231Z" fill="white"/>
</svg>
