<svg width="3" height="24" viewBox="0 0 3 24" fill="none" xmlns="http://www.w3.org/2000/svg">
<g style="mix-blend-mode:difference">
<path d="M1.5 3.11719C0.816406 3.11719 0.230469 2.55078 0.25 1.84766C0.230469 1.16406 0.816406 0.597656 1.5 0.597656C2.18359 0.597656 2.75 1.16406 2.75 1.84766C2.75 2.55078 2.18359 3.11719 1.5 3.11719ZM1.5 13.1172C0.816406 13.1172 0.230469 12.5508 0.25 11.8477C0.230469 11.1641 0.816406 10.5977 1.5 10.5977C2.18359 10.5977 2.75 11.1641 2.75 11.8477C2.75 12.5508 2.18359 13.1172 1.5 13.1172ZM1.5 23.1172C0.816406 23.1172 0.230469 22.5508 0.25 21.8477C0.230469 21.1641 0.816406 20.5977 1.5 20.5977C2.18359 20.5977 2.75 21.1641 2.75 21.8477C2.75 22.5508 2.18359 23.1172 1.5 23.1172Z" fill="white"/>
</g>
</svg>
