<svg width="189" height="46" viewBox="0 0 189 46" fill="none" xmlns="http://www.w3.org/2000/svg">
<path d="M17.3637 1.09375C14.4887 1.09375 12.1561 3.42635 12.1561 6.30133V17.2323C12.1561 17.2968 12.1181 17.4561 12.0423 17.714C11.9664 17.9719 11.7161 18.1009 11.2875 18.1009C10.8589 18.1009 10.6086 17.9719 10.5327 17.714C10.4569 17.4561 10.419 17.2968 10.419 17.2323V6.30133C10.419 3.42635 8.08635 1.09375 5.21137 1.09375C2.33639 1.09375 0 3.42635 0 6.30133V17.7481C0 18.8632 0.208607 19.9328 0.62582 20.9645C1.04303 21.9923 1.69161 22.914 2.57155 23.7295C3.45149 24.5449 4.58555 25.1859 5.98132 25.66C7.37329 26.1303 9.04594 26.3693 10.9955 26.3693C13.2029 26.3693 15.05 26.1379 16.5406 25.679C18.0312 25.22 19.2146 24.5866 20.0945 23.7826C20.9744 22.9785 21.6041 22.0568 21.9909 21.0176C22.3778 19.9783 22.5712 18.867 22.5712 17.6912V6.30891C22.5712 3.43394 20.2386 1.10134 17.3637 1.10134V1.09375Z" fill="#3ECE9E"/>
<path d="M9.35244 35.8281V45.7692H8.19942V41.0319H6.29161C6.19679 43.941 4.99825 45.3027 3.33699 45.3027C1.59228 45.3027 0.367188 43.8348 0.367188 40.683C0.367188 37.5311 1.58848 36.0633 3.33699 36.0633C4.92998 36.0633 6.09439 37.296 6.26886 39.951H8.19942V35.8319H9.35244V35.8281ZM5.13859 40.683C5.13859 38.1683 4.35726 37.1215 3.33319 37.1215C2.30912 37.1215 1.51642 38.1683 1.51642 40.683C1.51642 43.1976 2.29775 44.2445 3.33319 44.2445C4.36864 44.2445 5.13859 43.209 5.13859 40.683Z" fill="black"/>
<path d="M11.6478 38.4831H16.385V37.0532H11.625V36.0747H17.5267V39.4275H12.7894V40.8954H15.4065C16.7567 40.8954 17.8984 40.7323 18.5356 40.4516V41.4302C17.9287 41.6995 16.7681 41.8739 15.3572 41.8739H11.644V38.4869L11.6478 38.4831ZM12.0422 42.7766H13.2066V44.6161H20.7354V45.6402H12.0422V42.7766ZM19.3169 35.8281H20.4699V43.2431H19.3169V35.8281Z" fill="black"/>
<path d="M22.8125 40.683C22.8125 37.5273 24.0566 36.0633 25.8278 36.0633C27.5991 36.0633 28.8317 37.5311 28.8317 40.683C28.8317 43.8348 27.5877 45.3027 25.8278 45.3027C24.0679 45.3027 22.8125 43.8348 22.8125 40.683ZM27.6787 40.683C27.6787 38.1683 26.8633 37.1215 25.8278 37.1215C24.7924 37.1215 23.9655 38.1683 23.9655 40.683C23.9655 43.1976 24.7696 44.2445 25.8278 44.2445C26.886 44.2445 27.6787 43.209 27.6787 40.683ZM30.5196 35.8281H31.684V45.7692H30.5196V35.8281Z" fill="black"/>
<path d="M33.8281 40.8916V39.8675C35.4704 39.6475 36.5173 38.5514 36.669 37.0608H33.9571V36.0822H40.3935V37.0608H37.8334C37.8106 37.4439 37.7272 37.8156 37.602 38.1531L40.7197 39.932L40.1736 40.793L37.1582 39.0369C36.4604 40.0609 35.296 40.7474 33.8281 40.8878V40.8916ZM41.7324 41.4264H42.8627V45.6402H34.435V41.4264H35.5652V42.5339H41.7324V41.4264ZM41.7324 44.6958V43.4631H35.5652V44.6958H41.7324ZM42.8627 35.8281V40.994H41.7097V35.8281H42.8627Z" fill="black"/>
<path d="M46.6621 41.5417H45.2891V40.1914H46.6621V41.5417Z" fill="black"/>
<path d="M58.4571 43.1814H56.0032V45.9995H54.8615V43.1814H52.1155V45.9995H50.9738V43.1814H48.5312V42.1004H58.4571V43.1814ZM49.066 38.5389C49.066 36.8739 50.8221 35.9219 53.4885 35.9219C56.1549 35.9219 57.911 36.8777 57.911 38.5389C57.911 40.2002 56.1549 41.156 53.4885 41.156C50.8221 41.156 49.066 40.2002 49.066 38.5389ZM50.2646 38.5389C50.2646 39.563 51.6035 40.1206 53.4885 40.1206C55.3735 40.1206 56.7124 39.563 56.7124 38.5389C56.7124 37.5149 55.3735 36.9459 53.4885 36.9459C51.6035 36.9459 50.2646 37.5035 50.2646 38.5389Z" fill="black"/>
<path d="M63.7076 40.684L66.9088 44.42L66.0705 45.1634L63.3586 41.9281C62.6608 43.8473 61.4508 45.0003 59.9375 45.1748V44.0445C61.6253 43.7411 62.6835 41.4502 62.8239 38.4349H60.112V37.3653H62.8239V35.7344H63.9996V37.3653H66.5826V38.4349H63.9883C63.9541 39.2503 63.8593 39.9937 63.7076 40.6802V40.684ZM69.0024 35.8292V45.7702H67.8494V35.8292H69.0024Z" fill="black"/>
<path d="M73.6679 41.3809H70.9219V40.4251H75.0295C76.3912 40.4251 77.6011 40.3189 78.2876 40.0306V40.9864C77.658 41.2671 76.4139 41.3809 74.9954 41.3809H74.8209V43.1597H73.6679V41.3809ZM71.5136 37.7852C71.5136 36.5412 72.7349 35.8547 74.4568 35.8547C76.1788 35.8547 77.4001 36.5412 77.4001 37.7852C77.4001 39.0293 76.1901 39.7272 74.4568 39.7272C72.7235 39.7272 71.5136 39.0407 71.5136 37.7852ZM80.5329 44.6655V45.644H71.8397V42.6287H72.9928V44.6655H80.5329ZM72.6438 37.7852C72.6438 38.4717 73.4138 38.8207 74.4606 38.8207C75.5074 38.8207 76.2774 38.4717 76.2774 37.7852C76.2774 37.0987 75.5074 36.7612 74.4606 36.7612C73.4138 36.7612 72.6438 37.0987 72.6438 37.7852ZM79.1258 42.0674V35.8281H80.2788V43.6148H79.1258V42.9966H76.1105V42.0636H79.1258V42.0674Z" fill="black"/>
<path d="M85.4062 41.8208V40.7399C87.2685 40.4023 88.3609 38.2973 88.3874 35.9229L89.5405 35.9912C89.5405 36.875 89.4001 37.7245 89.1232 38.4831L92.2068 40.9485L91.4862 41.7639L88.6795 39.4844C87.9588 40.7399 86.8286 41.6388 85.41 41.8246L85.4062 41.8208ZM94.9491 44.601V45.6364H86.2786V42.4694H87.4544V44.601H94.9491ZM93.5874 38.7714H91.1903V37.7245H93.5874V35.8281H94.7404V43.2204H93.5874V38.7752V38.7714Z" fill="black"/>
<path d="M96.5781 41.3467V40.2999C98.1484 39.8561 98.7325 38.1456 98.7325 35.9457L99.84 35.9798C99.84 36.7498 99.7717 37.4591 99.62 38.0962L101.983 40.2961L101.228 41.0509L99.2597 39.1658C98.7476 40.3302 97.8753 41.1078 96.5819 41.3429L96.5781 41.3467ZM106.284 43.8007C106.284 45.2685 104.247 45.7692 101.873 45.7692C99.4986 45.7692 97.4619 45.2685 97.4619 43.8007C97.4619 42.3329 99.4986 41.8322 101.873 41.8322C104.247 41.8322 106.284 42.3329 106.284 43.8007ZM105.063 43.8007C105.063 43.0459 103.504 42.7766 101.873 42.7766C100.242 42.7766 98.6832 43.0459 98.6832 43.8007C98.6832 44.5555 100.242 44.8248 101.873 44.8248C103.504 44.8248 105.063 44.5555 105.063 43.8007ZM103.352 41.3088H102.26V35.885H103.352V37.7018H105.04V35.8281H106.132V41.635H105.04V38.76H103.352V41.3088Z" fill="black"/>
<path d="M108.234 36.014H109.399V39.6323H112.054C113.404 39.6323 114.546 39.4693 115.183 39.1886V40.1899C114.576 40.4592 113.415 40.6337 112.004 40.6337H108.234V36.014ZM108.629 41.7184H117.057V45.6402H108.629V41.7184ZM115.904 44.6617V42.7046H109.782V44.6617H115.904ZM115.904 35.8281H117.057V41.1116H115.904V35.8281Z" fill="black"/>
<path d="M118.969 39.9732H128.895V40.8683H118.969V39.9732ZM119.655 43.2768H127.082V42.5789H119.632V41.7179H128.212V44.0922H120.786V44.7901H128.386V45.6511H119.659V43.2768H119.655ZM119.678 35.9452H128.185V36.8289H120.831V38.2361H128.303V39.1198H119.678V35.9414V35.9452Z" fill="black"/>
<path d="M130.168 44.0927H134.23C135.592 44.0927 136.813 43.941 137.488 43.6262V44.6958C136.824 44.9992 135.592 45.1737 134.158 45.1737H130.164V44.0927H130.168ZM130.505 39.1696C130.505 37.3187 131.787 36.0405 133.578 36.0405C135.368 36.0405 136.65 37.3225 136.65 39.1696C136.65 41.0167 135.356 42.2987 133.578 42.2987C131.799 42.2987 130.505 41.0167 130.505 39.1696ZM135.523 39.1696C135.523 37.9825 134.753 37.076 133.581 37.076C132.409 37.076 131.639 37.9825 131.639 39.1696C131.639 40.3568 132.394 41.2519 133.581 41.2519C134.769 41.2519 135.523 40.3568 135.523 39.1696ZM138.33 35.8281H139.483V45.7692H138.33V35.8281Z" fill="black"/>
<path d="M153.983 35.8281V45.7692H152.83V40.9523H150.326C149.674 43.63 147.671 45.1434 145.043 45.1547V44.0738C147.137 44.0624 148.661 42.9663 149.185 40.8499H145.043V39.803H149.359C149.382 39.5603 149.393 39.3138 149.393 39.0483V37.2542H145.039V36.196H150.542V38.9762C150.542 39.291 150.531 39.583 150.497 39.8713H152.826V35.8319H153.979L153.983 35.8281Z" fill="black"/>
<path d="M165.746 43.1795H163.292V45.9976H162.151V43.1795H159.405V45.9976H158.263V43.1795H155.82V42.0985H165.746V43.1795ZM165.048 40.9H156.507V36.1172H165.048V40.9ZM163.895 37.1754H157.656V39.8531H163.895V37.1754Z" fill="black"/>
<path d="M167.586 36.1316H168.762V44.1155H171.648C172.592 44.1155 173.617 43.9183 174.22 43.6262V44.6844C173.613 44.9878 172.6 45.1737 171.648 45.1737H167.586V36.1316ZM175.137 35.8281H176.291V45.7692L175.137 45.7806V35.8281Z" fill="black"/>
<path d="M182.832 44.1155C183.776 44.1155 184.8 43.9296 185.404 43.6376V44.6958C184.797 44.9992 183.784 45.1737 182.832 45.1737H178.781V36.1884H184.622V37.2466H179.93V40.0761H184.448V41.1343H179.93V44.1155H182.828H182.832ZM187.486 35.8281V45.7692H186.333V35.8281H187.486Z" fill="black"/>
<path d="M58.1732 1.09375H44.5721C41.936 1.09375 39.7969 3.23292 39.7969 5.86894C39.7969 8.50497 41.936 10.6441 44.5721 10.6441H46.0361V21.0783C46.0361 23.7143 48.1753 25.8535 50.8113 25.8535H51.9681C54.6042 25.8535 56.7433 23.7143 56.7433 21.0783V10.6441H58.1732C60.8092 10.6441 62.9484 8.50497 62.9484 5.86894C62.9484 3.23292 60.8092 1.09375 58.1732 1.09375Z" fill="black"/>
<path d="M78.7768 7.49022C76.9562 6.13997 74.5023 5.46484 71.4149 5.46484C68.5854 5.46484 66.3249 6.07549 64.6295 7.29679C62.9379 8.51809 61.9176 10.2135 61.5763 12.3754C61.5118 12.6561 61.4625 13.0885 61.4321 13.6764C61.4018 14.2642 61.3828 14.9356 61.3828 15.6866C61.3828 16.4375 61.398 17.1316 61.4321 17.7119C61.4625 18.2923 61.5118 18.7208 61.5763 18.9977C61.9404 21.3114 62.9644 23.113 64.6485 24.3987C66.3325 25.6845 68.5854 26.3293 71.4149 26.3293C74.6085 26.3293 77.0966 25.6807 78.8754 24.3836C78.9702 24.3191 79.0575 24.2508 79.1447 24.1787C81.7694 22.0548 80.1384 17.7764 76.7628 17.7764H73.4099C72.9472 17.7764 72.5755 18.1519 72.5755 18.6108C72.5755 19.0698 72.2152 19.4642 71.7563 19.4794C71.1456 19.4946 70.8384 19.2063 70.8384 18.6108V16.8092H77.9765C80.0019 16.8092 81.6404 15.1669 81.6404 13.1454C81.5532 10.7217 80.6012 8.83668 78.7806 7.48643L78.7768 7.49022ZM72.5717 14.4994H70.8346V13.3426C70.8346 12.8837 71.1949 12.4892 71.6538 12.474C72.2645 12.4589 72.5717 12.7471 72.5717 13.3426V14.4994Z" fill="black"/>
<path d="M164.121 7.49022C162.3 6.13997 159.846 5.46484 156.759 5.46484C153.929 5.46484 151.669 6.07549 149.973 7.29679C148.282 8.51809 147.261 10.2135 146.92 12.3754C146.856 12.6561 146.806 13.0885 146.776 13.6764C146.746 14.2642 146.727 14.9356 146.727 15.6866C146.727 16.4375 146.742 17.1316 146.776 17.7119C146.806 18.2923 146.856 18.7208 146.92 18.9977C147.284 21.3114 148.308 23.113 149.992 24.3987C151.676 25.6845 153.929 26.3293 156.759 26.3293C159.952 26.3293 162.44 25.6807 164.219 24.3836C164.314 24.3191 164.401 24.2508 164.488 24.1787C167.113 22.0548 165.482 17.7764 162.107 17.7764H158.754C158.291 17.7764 157.919 18.1519 157.919 18.6108C157.919 19.0698 157.559 19.4642 157.1 19.4794C156.489 19.4946 156.182 19.2063 156.182 18.6108V16.8092H163.32C165.346 16.8092 166.984 15.1669 166.984 13.1454C166.897 10.7217 165.945 8.83668 164.124 7.48643L164.121 7.49022ZM157.915 14.4994H156.178V13.3426C156.178 12.8837 156.539 12.4892 156.998 12.474C157.608 12.4589 157.915 12.7471 157.915 13.3426V14.4994Z" fill="black"/>
<path d="M102.115 12.3813C102.115 10.1094 101.307 8.37984 99.6872 7.18889C98.0677 5.99793 95.7806 5.40625 92.8222 5.40625C91.4491 5.40625 89.9434 5.53521 88.3049 5.79312C87.8801 5.86139 87.4477 5.93725 87.0077 6.02448C84.732 6.47204 83.1428 8.54293 83.3362 10.8528C83.4576 12.313 84.9254 13.265 86.3098 12.7833L86.344 12.772C87.5122 12.3661 88.9534 12.1613 90.6678 12.1613C91.0319 12.1613 91.4036 12.1765 91.7753 12.2106C92.1508 12.241 92.5415 12.2789 92.9473 12.3244C93.1825 12.3472 93.3797 12.442 93.5428 12.6127C93.7021 12.7833 93.7628 13.0526 93.7211 13.4167C93.228 13.375 92.7615 13.3409 92.3215 13.3219C91.8815 13.2992 91.4491 13.2916 91.0205 13.2916C87.9559 13.2916 85.7788 13.7619 84.4931 14.7063C83.2073 15.6507 82.5625 17.1489 82.5625 19.2084V20.7521C82.5625 21.7382 82.7559 22.6561 83.1428 23.5019C83.5297 24.3477 84.182 25.0418 85.1037 25.5766C86.0254 26.1114 87.2808 26.3807 88.8662 26.3807C90.023 26.3807 90.9447 26.191 91.6312 25.8194C92.3177 25.4439 92.8146 24.9925 93.1256 24.4691C93.4366 23.9457 93.5921 23.4564 93.5921 23.0051H93.8804C93.8879 24.8484 95.4013 26.3579 97.2446 26.3579H98.6025C100.613 26.3579 102.213 24.6739 102.111 22.6675V22.6296V12.3927L102.115 12.3813ZM93.0801 19.8077C93.0801 19.8722 93.0421 20.0315 92.9663 20.2894C92.8904 20.5473 92.6401 20.6763 92.2115 20.6763C91.7829 20.6763 91.5326 20.5473 91.4567 20.2894C91.3809 20.0315 91.3429 19.8722 91.3429 19.8077V17.7823C91.3429 17.6951 91.3809 17.532 91.4567 17.2854C91.5326 17.0389 91.7829 16.9137 92.2115 16.9137C92.6401 16.9137 92.8904 17.0389 92.9663 17.2854C93.0421 17.532 93.0801 17.6989 93.0801 17.7823V19.8077Z" fill="black"/>
<path d="M144.587 7.74879C144.182 7.02056 143.579 6.44784 142.786 6.02683C141.993 5.60962 140.954 5.40101 139.668 5.40101C138.382 5.40101 137.282 5.7272 136.308 6.38336C135.333 7.03573 134.768 8.02946 134.62 9.35695H134.332V4.90794C134.332 2.19606 132.135 0 129.424 0C126.704 0 124.504 2.21123 124.516 4.9307L124.595 20.9744C124.61 23.6712 126.799 25.8483 129.496 25.8483C132.2 25.8483 134.396 23.656 134.396 20.9479V13.9197C134.396 13.8553 134.434 13.696 134.51 13.4381C134.586 13.1801 134.836 13.0512 135.265 13.0512C135.693 13.0512 135.944 13.1801 136.019 13.4381C136.095 13.696 136.133 13.8553 136.133 13.9197V21.0731C136.133 23.7091 138.272 25.8483 140.908 25.8483C143.544 25.8483 145.684 23.7091 145.684 21.0731V13.1801C145.661 12.1523 145.577 11.1699 145.426 10.2369C145.274 9.30385 144.997 8.47322 144.591 7.74499L144.587 7.74879Z" fill="black"/>
<path d="M31.8236 8.81486C31.5202 8.70866 31.2092 8.62142 30.8944 8.54557C26.0395 7.43426 21.1998 10.4723 20.0885 15.331C18.9772 20.1858 22.0153 25.0255 26.8739 26.1368C28.2507 26.4516 29.6238 26.4288 30.9095 26.1292C29.8362 27.635 28.52 28.5073 28.52 28.5073C32.7756 27.5326 36.3409 24.2973 37.547 19.8445C37.5736 19.7572 37.5963 19.67 37.6191 19.579C37.638 19.5031 37.657 19.4272 37.6722 19.3514C37.6873 19.2755 37.7063 19.1997 37.7215 19.1238C38.6242 14.6634 36.0526 10.2675 31.8198 8.81486H31.8236Z" fill="#FFD72E"/>
<path d="M24.0177 16.2276C24.0177 15.8862 23.7409 15.6094 23.3995 15.6094C23.058 15.6094 22.7812 15.8862 22.7812 16.2276V16.8421C22.7812 17.1835 23.058 17.4603 23.3995 17.4603C23.7409 17.4603 24.0177 17.1835 24.0177 16.8421V16.2276Z" fill="white"/>
<path d="M28.0021 16.2276C28.0021 15.8862 27.7253 15.6094 27.3839 15.6094C27.0424 15.6094 26.7656 15.8862 26.7656 16.2276V16.8421C26.7656 17.1835 27.0424 17.4603 27.3839 17.4603C27.7253 17.4603 28.0021 17.1835 28.0021 16.8421V16.2276Z" fill="white"/>
<path d="M23.3984 19.1562C23.3984 19.1562 23.4364 21.102 25.3935 21.102C27.3506 21.102 27.3885 19.1562 27.3885 19.1562" stroke="white" stroke-width="1.71" stroke-miterlimit="10" stroke-linecap="round"/>
<path d="M183.448 5.45176C183.448 5.45176 183.444 5.45176 183.44 5.45176C183.437 5.45176 183.429 5.45176 183.425 5.45176C183.057 5.42142 182.746 5.40625 182.492 5.40625C181.354 5.40625 180.425 5.65658 179.693 6.16103C178.965 6.66548 178.392 7.26854 177.971 7.9778C177.554 8.68706 177.266 9.36598 177.103 10.0184C176.943 10.6707 176.86 11.1486 176.86 11.4483H176.602C176.594 11.0841 176.477 10.208 176.314 9.2484C175.987 7.32164 174.315 5.91828 172.362 5.91828H172.252C169.942 5.91828 168.079 7.80333 168.11 10.1132C168.151 13.4092 168.189 17.972 168.212 21.34C168.231 23.8433 170.26 25.8611 172.76 25.8687C175.286 25.8762 177.342 23.8319 177.342 21.3021V17.8127C177.342 17.2134 177.527 16.7507 177.903 16.4283C178.278 16.1059 178.734 15.8821 179.268 15.7531C179.803 15.6242 180.308 15.5597 180.778 15.5597C181.222 15.5597 181.616 15.59 181.969 15.6469C182.098 15.6659 182.219 15.6924 182.337 15.719C182.61 15.7645 182.887 15.7911 183.171 15.7911C183.338 15.7911 183.505 15.7835 183.672 15.7645C186.296 15.5142 188.352 13.303 188.352 10.61C188.352 7.91711 186.179 5.58831 183.444 5.44797L183.448 5.45176Z" fill="black"/>
<path d="M122.004 8.53903C121.178 7.52255 120.009 6.74501 118.5 6.20643C116.99 5.67164 115.193 5.40234 113.114 5.40234C111.335 5.40234 109.716 5.67164 108.259 6.20643C106.803 6.74122 105.627 7.53013 104.739 8.56937C103.848 9.60861 103.363 10.8678 103.275 12.347C103.253 12.6239 103.237 13.0601 103.226 13.648C103.215 14.2397 103.211 14.9186 103.211 15.6885C103.211 16.4585 103.215 17.1829 103.226 17.7936C103.237 18.4042 103.253 18.8594 103.275 19.159C103.363 20.6799 103.848 21.9771 104.739 23.0505C105.627 24.1238 106.803 24.9355 108.259 25.4931C109.716 26.0506 111.335 26.3275 113.114 26.3275C116.308 26.3275 118.796 25.6903 120.575 24.4159C122.353 23.1415 123.245 21.3664 123.245 19.0945C123.245 17.4788 121.936 16.1702 120.32 16.1702H115.488C114.821 16.1702 114.278 16.7126 114.278 17.3802V17.5205C114.278 17.9794 113.918 18.3739 113.459 18.3891C112.849 18.4042 112.541 18.116 112.541 17.5205V13.9211C112.541 13.4621 112.902 13.0677 113.361 13.0525C113.971 13.0373 114.278 13.3256 114.278 13.9211C114.278 14.5886 114.821 15.131 115.488 15.131H120.332C121.944 15.131 123.249 13.8263 123.249 12.2143C123.249 10.7768 122.835 9.55172 122.012 8.53144L122.004 8.53903Z" fill="black"/>
</svg>
