<svg width="123" height="89" viewBox="0 0 123 89" fill="none" xmlns="http://www.w3.org/2000/svg">
<path d="M56.3432 0C47.0142 0 39.4452 7.57263 39.4452 16.9061V52.3928C39.4452 52.6021 39.3221 53.1193 39.0759 53.9566C38.8298 54.7939 38.0175 55.2125 36.6268 55.2125C35.236 55.2125 34.4238 54.7939 34.1776 53.9566C33.9315 53.1193 33.8084 52.6021 33.8084 52.3928V16.9061C33.8084 7.57263 26.2393 0 16.898 0C7.55673 0 0 7.57263 0 16.9061V54.0674C0 57.6875 0.676906 61.1598 2.03072 64.509C3.38453 67.8459 5.48909 70.838 8.34441 73.4853C11.1997 76.1327 14.8796 78.2136 19.4087 79.7528C23.9256 81.2796 29.3531 82.0553 35.6791 82.0553C42.842 82.0553 48.8357 81.3042 53.6725 79.8143C58.5093 78.3244 62.3492 76.2681 65.2045 73.6577C68.0598 71.0473 70.1029 68.0552 71.3582 64.6814C72.6136 61.3076 73.2412 57.6998 73.2412 53.8827V16.9061C73.2412 7.57263 65.6722 0 56.3432 0Z" fill="#3ECE9E"/>
<path d="M103.258 25.0694C102.274 24.7246 101.264 24.4414 100.243 24.1951C84.4894 20.5873 68.7852 30.4502 65.1791 46.2235C61.5731 61.9844 71.4313 77.6961 87.1971 81.3039C91.6646 82.3259 96.1199 82.252 100.292 81.2792C96.8091 86.1676 92.5385 88.9996 92.5385 88.9996C106.347 85.8351 117.916 75.332 121.83 60.8762C121.916 60.593 121.99 60.3098 122.064 60.0143C122.125 59.768 122.187 59.5218 122.236 59.2755C122.285 59.0292 122.347 58.783 122.396 58.5367C125.325 44.0564 116.981 29.7853 103.246 25.0694H103.258Z" fill="#FFD72E"/>
<path d="M77.9302 49.1301C77.9302 48.0216 77.032 47.123 75.9241 47.123C74.8161 47.123 73.918 48.0216 73.918 49.1301V51.1248C73.918 52.2333 74.8161 53.1319 75.9241 53.1319C77.032 53.1319 77.9302 52.2333 77.9302 51.1248V49.1301Z" fill="white"/>
<path d="M90.8774 49.1301C90.8774 48.0216 89.9793 47.123 88.8713 47.123C87.7634 47.123 86.8652 48.0216 86.8652 49.1301V51.1248C86.8652 52.2333 87.7634 53.1319 88.8713 53.1319C89.9793 53.1319 90.8774 52.2333 90.8774 51.1248V49.1301Z" fill="white"/>
<path d="M82.3973 65.9984C76.5513 65.9984 74.9145 61.1963 74.8652 58.6474C74.8652 58.0687 75.3206 57.5885 75.8991 57.5762C76.4898 57.5762 76.9575 58.0318 76.9698 58.6105C76.9821 59.1523 77.2652 63.8929 82.385 63.8929C87.5049 63.8929 87.788 59.1523 87.8003 58.6105C87.8126 58.0318 88.3418 57.5885 88.8833 57.5762C89.4618 57.5885 89.9295 58.0687 89.9172 58.6474C89.8679 61.184 88.2311 65.9984 82.385 65.9984H82.3973Z" fill="white"/>
</svg>
