<svg width="24" height="26" viewBox="0 0 24 26" fill="none" xmlns="http://www.w3.org/2000/svg">
<path d="M15.915 0.64186C15.5114 0.505105 15.0976 0.392772 14.6789 0.29509C8.2209 -1.13594 1.7831 2.7762 0.304831 9.03271C-1.17344 15.2843 2.86784 21.5164 9.33087 22.9475C11.1623 23.3528 12.9887 23.3235 14.6991 22.9377C13.2713 24.8767 11.5205 26 11.5205 26C17.1814 24.7448 21.9239 20.5787 23.5283 14.8448C23.5637 14.7324 23.5939 14.6201 23.6242 14.5029C23.6494 14.4052 23.6747 14.3075 23.6948 14.2098C23.715 14.1121 23.7402 14.0145 23.7604 13.9168C24.9612 8.17311 21.5405 2.51246 15.9099 0.64186H15.915Z" fill="#3ECE9E"/>
</svg>
