<svg width="77" height="83" viewBox="0 0 77 83" fill="none" xmlns="http://www.w3.org/2000/svg">
<path d="M51.0606 2.04901C49.7656 1.61245 48.4383 1.25385 47.0948 0.94202C26.3754 -3.62628 5.72079 8.86249 0.978 28.8352C-3.76479 48.7923 9.201 68.687 29.9366 73.2553C35.8124 74.5494 41.6721 74.4559 47.1595 73.2241C42.5786 79.4139 36.9617 83 36.9617 83C55.1235 78.993 70.3393 65.6934 75.4868 47.389C75.6001 47.0304 75.6972 46.6718 75.7943 46.2976C75.8753 45.9858 75.9562 45.674 76.0209 45.3622C76.0857 45.0503 76.1666 44.7385 76.2314 44.4267C80.0839 26.0911 69.1091 8.02055 51.0444 2.04901H51.0606Z" fill="#FFD72E"/>
<path d="M33.7026 29L42 37.2974L33.7026 45.5948" stroke="white" stroke-width="3" stroke-linecap="round" stroke-linejoin="round"/>
</svg>
