<svg width="30" height="31" viewBox="0 0 30 31" fill="none" xmlns="http://www.w3.org/2000/svg">
<g clip-path="url(#clip0_142_6154)">
<path d="M3.74877 12.6016C2.99877 12.6016 2.42377 11.9516 2.49877 11.2141C2.66127 9.66406 3.09877 8.21406 3.82377 6.86406C4.52377 5.53906 5.41127 4.38906 6.48627 3.41406C7.03627 2.91406 7.89877 3.00156 8.33627 3.60156C8.69877 4.10156 8.64877 4.80156 8.19877 5.22656C7.33627 6.01406 6.61127 6.93906 6.04877 8.01406C5.48627 9.08906 5.12377 10.2766 4.98627 11.5391C4.92377 12.1516 4.38627 12.6141 3.76127 12.6141H3.74877V12.6016ZM26.1113 12.6016C25.4988 12.6016 24.9488 12.1516 24.8863 11.5266C24.7613 10.2641 24.4113 9.08906 23.8238 8.00156C23.2363 6.91406 22.5363 6.00156 21.6738 5.21406C21.2113 4.80156 21.1613 4.08906 21.5363 3.58906C21.9738 2.98906 22.8363 2.90156 23.3863 3.40156C24.4613 4.37656 25.3488 5.52656 26.0488 6.85156C26.7488 8.17656 27.2113 9.65156 27.3738 11.2016C27.4488 11.9391 26.8738 12.5891 26.1363 12.5891H26.1238L26.1113 12.6016ZM4.93627 22.6016C4.93627 21.9141 5.49877 21.3516 6.18627 21.3516H7.43627V12.6016C7.43627 10.8766 7.96127 9.33906 8.99877 7.98906C10.0363 6.63906 11.3988 5.76406 13.0613 5.35156V4.47656C13.0613 3.95156 13.2488 3.51406 13.6113 3.15156C13.9738 2.78906 14.4238 2.60156 14.9363 2.60156C15.4488 2.60156 15.8988 2.78906 16.2613 3.15156C16.6238 3.51406 16.8113 3.96406 16.8113 4.47656V5.35156C18.4738 5.76406 19.8363 6.65156 20.8738 7.98906C21.9113 9.32656 22.4363 10.8641 22.4363 12.6016V21.3516H23.6863C24.3738 21.3516 24.9363 21.9141 24.9363 22.6016C24.9363 23.2891 24.3738 23.8516 23.6863 23.8516H6.18627C5.49877 23.8516 4.93627 23.2891 4.93627 22.6016ZM14.9363 27.6016C14.2488 27.6016 13.6613 27.3516 13.1738 26.8641C12.6863 26.3766 12.4363 25.7891 12.4363 25.1016H17.4363C17.4363 25.7891 17.1863 26.3766 16.6988 26.8641C16.2113 27.3516 15.6238 27.6016 14.9363 27.6016ZM9.93627 21.3516H19.9363V12.6016C19.9363 11.4516 19.5613 10.3266 18.8113 9.45156C17.6488 8.07656 16.1738 7.47656 14.3863 7.62656C13.4488 7.71406 12.5363 8.08906 11.8113 8.68906C10.5488 9.73906 9.92377 11.0391 9.92377 12.6016V21.3516H9.93627Z" fill="black"/>
</g>
<defs>
<clipPath id="clip0_142_6154">
<rect width="24.875" height="25" fill="white" transform="translate(2.5 2.60156)"/>
</clipPath>
</defs>
</svg>
