<svg width="25" height="25" viewBox="0 0 25 25" fill="none" xmlns="http://www.w3.org/2000/svg">
<circle cx="12.5" cy="12.5" r="12" stroke="#D9D9D9"/>
<path d="M11.3907 15.6908C11.4101 12.8614 12.207 11.9957 13.5482 11.1088C14.3452 10.581 14.9672 9.73638 14.9672 8.55395C14.9672 7.11814 13.937 6.2102 12.6541 6.2102C11.5462 6.2102 10.4382 6.9281 10.3216 8.65952H8.55273C8.64992 6.10462 10.4382 4.60547 12.6541 4.60547C15.0838 4.60547 16.6777 6.31577 16.6777 8.63841C16.6777 10.2854 15.9585 11.4467 14.7534 12.249C13.5482 13.0514 13.1012 13.8538 13.0623 15.6908V15.7963H11.3907V15.6908ZM12.2848 20.2305C11.6045 20.2305 11.0213 19.6181 11.0408 18.858C11.0213 18.119 11.6045 17.5067 12.2848 17.5067C12.9651 17.5067 13.5288 18.119 13.5288 18.858C13.5288 19.6181 12.9651 20.2305 12.2848 20.2305Z" fill="#D9D9D9"/>
</svg>
