<svg width="136" height="137" viewBox="0 0 136 137" fill="none" xmlns="http://www.w3.org/2000/svg">
<path fill-rule="evenodd" clip-rule="evenodd" d="M135.599 70.0552C135.599 65.196 135.157 60.5303 134.344 56.0454H69.3809V82.542H106.506C104.907 91.1053 100.046 98.3586 92.7423 103.218V120.403H115.038C128.08 108.477 135.605 90.9181 135.605 70.0552H135.599Z" fill="#3E82F1"/>
<path fill-rule="evenodd" clip-rule="evenodd" d="M69.3832 137C88.0074 137 103.623 130.863 115.034 120.403L92.7382 103.218C86.5583 107.329 78.6628 109.755 69.3767 109.755C51.4089 109.755 36.2028 97.707 30.7768 81.5161H7.74023V99.2622C19.0928 121.648 42.4152 137 69.3832 137Z" fill="#32A753"/>
<path fill-rule="evenodd" clip-rule="evenodd" d="M30.782 81.5163C29.4043 77.4057 28.618 73.0176 28.618 68.5004C28.618 63.9832 29.4043 59.595 30.782 55.4844V37.7383H7.73894C3.06665 46.9856 0.402344 57.4462 0.402344 68.5004C0.402344 79.5546 3.06665 90.0151 7.73894 99.2625L30.782 81.5163Z" fill="#F9BB00"/>
<path fill-rule="evenodd" clip-rule="evenodd" d="M69.3832 27.2451C79.5076 27.2451 88.6052 30.704 95.7534 37.4863L115.541 17.8365C103.59 6.7887 87.9749 0 69.3832 0C42.4152 0 19.0928 15.352 7.74023 37.7379L30.7833 55.484C36.2093 39.2931 51.4154 27.2451 69.3832 27.2451Z" fill="#E74133"/>
</svg>
