<svg width="17" height="20" viewBox="0 0 17 20" fill="none" xmlns="http://www.w3.org/2000/svg">
<rect y="7.35352" width="16.1084" height="12.4058" rx="4" fill="#3ECE9E"/>
<path fill-rule="evenodd" clip-rule="evenodd" d="M8.05461 2C6.60167 2 5.42383 3.17784 5.42383 4.63078V8.26156H3.42383V4.63078C3.42383 2.07327 5.4971 0 8.05461 0C10.6121 0 12.6854 2.07327 12.6854 4.63078L12.6854 8.26156H10.6854L10.6854 4.63078C10.6854 3.17784 9.50755 2 8.05461 2Z" fill="#3ECE9E"/>
<path fill-rule="evenodd" clip-rule="evenodd" d="M9.07711 13.4657C9.61945 13.1518 9.9843 12.5653 9.9843 11.8935C9.9843 10.8909 9.17152 10.0781 8.16891 10.0781C7.16629 10.0781 6.35352 10.8909 6.35352 11.8935C6.35352 12.5657 6.71882 13.1525 7.26172 13.4663V16.4315C7.26172 16.9328 7.66811 17.3392 8.16941 17.3392C8.67072 17.3392 9.07711 16.9328 9.07711 16.4315V13.4657Z" fill="white"/>
</svg>
