<svg width="150" height="137" viewBox="0 0 150 137" fill="none" xmlns="http://www.w3.org/2000/svg">
<path d="M74.7394 0C33.5577 0 0.175781 26.3845 0.175781 58.9498C0.175781 80.139 14.3113 98.7096 35.5428 109.1C33.98 114.915 29.8971 130.191 29.0805 133.457C28.0668 137.512 30.5588 137.456 32.2061 136.372C33.4873 135.513 52.635 122.489 60.8996 116.872C65.3908 117.534 70.0088 117.885 74.7394 117.885C115.921 117.885 149.303 91.501 149.303 58.9498C149.303 26.3986 115.921 0 74.7394 0Z" fill="#371D1E"/>
<path d="M22.7148 48.0944H30.388C30.388 48.0944 30.4302 69.171 30.388 74.0847C30.388 77.6749 38.3709 77.7171 38.3568 74.141L38.385 48.376C38.385 48.376 40.9615 48.3901 46.016 48.3901C50.7888 48.3901 50.7888 40.8858 46.016 40.8858C40.6377 40.8858 22.6726 40.731 22.6726 40.731C18.1672 40.731 18.1813 48.0944 22.6726 48.0944" fill="#FAE100"/>
<mask id="mask0_1381_3467" style="mask-type:luminance" maskUnits="userSpaceOnUse" x="19" y="40" width="31" height="37">
<path d="M22.7187 48.0939H30.3919C30.3919 48.0939 30.4341 69.1705 30.3919 74.0842C30.3919 77.6744 38.3748 77.7166 38.3608 74.1405L38.3889 48.3755C38.3889 48.3755 40.9654 48.3896 46.0199 48.3896C50.7927 48.3896 50.7927 40.8853 46.0199 40.8853C40.6416 40.8853 22.6765 40.7305 22.6765 40.7305C18.1711 40.7305 18.1852 48.0939 22.6765 48.0939" fill="white"/>
</mask>
<g mask="url(#mask0_1381_3467)">
<path d="M50.8106 40.7305H18.2031V77.7166H50.8106V40.7305Z" fill="#FAE100"/>
</g>
<path d="M59.4455 49.4458L63.7115 62.8211H54.8135L59.4455 49.4458ZM54.6586 43.1806C52.772 47.334 45.9435 66.9745 43.6909 72.1838C42.0577 75.943 49.1114 79.0122 50.7446 75.2531L52.2792 69.8889H66.3162C66.3162 69.8889 65.8375 70.1142 67.696 75.0278C69.2025 79.0122 76.4955 76.2527 74.989 72.2683C72.8349 66.5803 65.3729 46.0809 64.0072 43.1806C63.3877 41.843 61.135 40.8716 58.9528 40.8716C57.1506 40.8716 55.3907 41.5333 54.6445 43.1806" fill="#FAE100"/>
<mask id="mask1_1381_3467" style="mask-type:luminance" maskUnits="userSpaceOnUse" x="43" y="40" width="33" height="37">
<path d="M59.4514 49.4463L63.7174 62.8216H54.8193L59.4514 49.4463ZM54.6645 43.1811C52.7778 47.3344 45.9494 66.975 43.6967 72.1843C42.0635 75.9435 49.1172 79.0127 50.7504 75.2536L52.2851 69.8894H66.3221C66.3221 69.8894 65.8434 70.1147 67.7018 75.0283C69.2083 79.0127 76.5014 76.2532 74.9949 72.2688C72.8408 66.5808 65.3788 46.0814 64.0131 43.1811C63.3936 41.8435 61.1409 40.8721 58.9586 40.8721C57.1565 40.8721 55.3966 41.5338 54.6504 43.1811" fill="white"/>
</mask>
<g mask="url(#mask1_1381_3467)">
<path d="M76.5089 40.8862H42.043V79.041H76.5089V40.8862Z" fill="#FAE100"/>
</g>
<path d="M77.6973 44.4055C77.6973 51.079 77.7396 72.5921 77.7396 72.5921C77.7396 72.5921 77.1201 76.8722 80.7948 76.8722C84.4694 76.8722 92.5932 76.83 96.1975 76.83C99.8017 76.83 99.7877 69.1568 96.1834 69.1568C92.5791 69.1568 85.99 69.1145 85.99 69.1145C85.99 69.1145 86.0182 49.2206 86.0041 44.3773C86.0041 42.0402 83.9204 40.8716 81.8507 40.8716C79.7811 40.8716 77.6833 42.0542 77.6973 44.3914" fill="#FAE100"/>
<mask id="mask2_1381_3467" style="mask-type:luminance" maskUnits="userSpaceOnUse" x="77" y="40" width="22" height="37">
<path d="M77.6954 44.406C77.6954 51.0795 77.7376 72.5926 77.7376 72.5926C77.7376 72.5926 77.1181 76.8727 80.7928 76.8727C84.4675 76.8727 92.5912 76.8305 96.1955 76.8305C99.7998 76.8305 99.7857 69.1573 96.1814 69.1573C92.5771 69.1573 85.9881 69.115 85.9881 69.115C85.9881 69.115 86.0162 49.2211 86.0021 44.3778C86.0021 42.0406 83.9184 40.8721 81.8488 40.8721C79.7791 40.8721 77.6813 42.0547 77.6954 44.3919" fill="white"/>
</mask>
<g mask="url(#mask2_1381_3467)">
<path d="M99.7969 40.8862H77.1152V76.8728H99.7969V40.8862Z" fill="#FAE100"/>
</g>
<path d="M100.757 43.3497C100.841 46.2782 100.658 72.7471 100.658 74.7042C100.658 77.8016 108.543 77.7875 108.543 74.7042C108.543 71.114 108.543 64.2855 108.543 64.2855L110.852 62.4271L120.975 76.2247C123.016 78.9279 129.45 74.0424 127.409 71.3533L116.666 57.2037C116.666 57.2037 123.959 49.3193 126.832 46.4612C128.507 44.7999 123.312 39.5624 121.636 41.2378C120.017 42.8428 108.585 54.2893 108.585 54.2893C108.585 54.2893 108.683 47.1088 108.585 43.1385C108.543 41.632 106.698 40.8999 104.798 40.8999C102.77 40.8999 100.7 41.7306 100.743 43.3497" fill="#FAE100"/>
</svg>
