<svg width="322" height="359" viewBox="0 0 322 359" fill="none" xmlns="http://www.w3.org/2000/svg">
<path d="M213.526 8.8626C208.111 6.97434 202.56 5.42328 196.942 4.07452C110.297 -15.6848 23.9233 38.3329 4.08982 124.721C-15.7437 211.041 38.4769 297.092 125.189 316.851C149.761 322.449 174.265 322.044 197.213 316.716C178.056 343.489 154.567 359 154.567 359C230.517 341.668 294.146 284.144 315.672 204.972C316.146 203.421 316.552 201.87 316.958 200.251C317.297 198.902 317.635 197.554 317.906 196.205C318.177 194.856 318.515 193.507 318.786 192.159C334.896 112.852 289.002 34.6913 213.458 8.8626H213.526Z" fill="current"/>
</svg>
