<svg width="47" height="53" viewBox="0 0 47 53" fill="none" xmlns="http://www.w3.org/2000/svg">
<path d="M31.1669 1.30841C30.3764 1.02964 29.5662 0.800651 28.7462 0.601531C16.0993 -2.31558 3.49191 5.65918 0.596961 18.4128C-2.29799 31.1565 5.61619 43.8604 18.273 46.7775C21.8595 47.6038 25.4362 47.5441 28.7857 46.7576C25.9895 50.7101 22.561 53 22.561 53C33.6468 50.4413 42.9344 41.9488 46.0763 30.2605C46.1455 30.0315 46.2048 29.8025 46.2641 29.5636C46.3135 29.3644 46.3629 29.1653 46.4024 28.9662C46.4419 28.7671 46.4913 28.568 46.5308 28.3688C48.8824 16.6606 42.1835 5.12156 31.157 1.30841H31.1669Z" fill="#3ECE9E"/>
<rect x="12" y="15" width="22" height="2" rx="1" fill="white"/>
<rect x="12" y="22" width="22" height="2" rx="1" fill="white"/>
<rect x="12" y="29" width="22" height="2" rx="1" fill="white"/>
</svg>
