<svg width="45" height="45" viewBox="0 0 45 45" fill="none" xmlns="http://www.w3.org/2000/svg">
<rect width="45" height="45" rx="22.5" fill="url(#paint0_linear_2420_7630)"/>
<g style="mix-blend-mode:lighten">
<rect x="8" y="7" width="30" height="30" fill="black"/>
<g clip-path="url(#clip0_2420_7630)">
<rect width="21.9875" height="21.9875" transform="translate(11.75 10.75)" fill="black"/>
<path d="M31.6219 32.375L24.6219 25.375C23.9969 25.875 23.2719 26.275 22.4594 26.5625C21.6469 26.85 20.7844 27 19.8594 27C17.5844 27 15.6719 26.2125 14.0969 24.6375C12.5219 23.0625 11.7344 21.1375 11.7344 18.875C11.7344 16.6125 12.5344 14.6875 14.1094 13.1125C15.6844 11.5375 17.5969 10.75 19.8719 10.75C22.1469 10.75 24.0594 11.5375 25.6344 13.1125C27.2094 14.6875 27.9969 16.6125 27.9969 18.875C27.9969 19.7875 27.8469 20.6625 27.5594 21.475C27.2719 22.2875 26.8719 23.0125 26.3719 23.6375L33.3719 30.6375C33.8594 31.125 33.8594 31.9 33.3719 32.3875C32.8844 32.875 32.1094 32.875 31.6219 32.3875V32.375ZM19.8719 24.5C21.4344 24.5 22.7594 23.95 23.8594 22.8625C24.9594 21.775 25.4969 20.4375 25.4969 18.875C25.4969 17.3125 24.9469 15.9875 23.8594 14.8875C22.7719 13.7875 21.4344 13.25 19.8719 13.25C18.3094 13.25 16.9844 13.8 15.8844 14.8875C14.7844 15.975 14.2469 17.3125 14.2469 18.875C14.2469 20.4375 14.7969 21.7625 15.8844 22.8625C16.9719 23.9625 18.3094 24.5 19.8719 24.5Z" fill="white"/>
</g>
</g>
<defs>
<linearGradient id="paint0_linear_2420_7630" x1="10.5" y1="12.5" x2="59" y2="55.5" gradientUnits="userSpaceOnUse">
<stop stop-color="#3ECE9E"/>
<stop offset="1" stop-color="#FFD72E"/>
</linearGradient>
<clipPath id="clip0_2420_7630">
<rect width="21.9875" height="21.9875" fill="white" transform="translate(11.75 10.75)"/>
</clipPath>
</defs>
</svg>
