<svg width="322" height="359" viewBox="0 0 322 359" fill="none" xmlns="http://www.w3.org/2000/svg">
<path d="M213.526 8.8626C208.111 6.97434 202.56 5.42328 196.942 4.07452C110.297 -15.6848 23.9233 38.3329 4.08982 124.721C-15.7437 211.041 38.4769 297.092 125.189 316.851C149.761 322.449 174.265 322.044 197.213 316.716C178.056 343.489 154.567 359 154.567 359C230.517 341.668 294.146 284.144 315.672 204.972C316.146 203.421 316.552 201.87 316.958 200.251C317.297 198.902 317.635 197.554 317.906 196.205C318.177 194.856 318.515 193.507 318.786 192.159C334.896 112.852 289.002 34.6913 213.458 8.8626H213.526Z" fill="#D9D9D9"/>
<path d="M84.3637 136.898C81.4887 136.898 79.1561 138.998 79.1561 141.585V151.423C79.1561 151.481 79.1181 151.625 79.0423 151.857C78.9664 152.089 78.7161 152.205 78.2875 152.205C77.8589 152.205 77.6086 152.089 77.5327 151.857C77.4569 151.625 77.419 151.481 77.419 151.423V141.585C77.419 138.998 75.0863 136.898 72.2114 136.898C69.3364 136.898 67 138.998 67 141.585V151.887C67 152.891 67.2086 153.854 67.6258 154.782C68.043 155.707 68.6916 156.537 69.5716 157.271C70.4515 158.004 71.5856 158.581 72.9813 159.008C74.3733 159.431 76.0459 159.646 77.9955 159.646C80.2029 159.646 82.05 159.438 83.5406 159.025C85.0312 158.612 86.2146 158.042 87.0945 157.318C87.9744 156.595 88.6041 155.765 88.9909 154.83C89.3778 153.895 89.5712 152.894 89.5712 151.836V141.592C89.5712 139.005 87.2386 136.905 84.3637 136.905V136.898Z" fill="#3ECE9E"/>
<path d="M76.3524 168.242V177.189H75.1994V172.926H73.2916C73.1968 175.544 71.9983 176.769 70.337 176.769C68.5923 176.769 67.3672 175.448 67.3672 172.612C67.3672 169.775 68.5885 168.454 70.337 168.454C71.93 168.454 73.0944 169.563 73.2689 171.953H75.1994V168.246H76.3524V168.242ZM72.1386 172.612C72.1386 170.348 71.3573 169.406 70.3332 169.406C69.3091 169.406 68.5164 170.348 68.5164 172.612C68.5164 174.875 69.2977 175.817 70.3332 175.817C71.3686 175.817 72.1386 174.885 72.1386 172.612Z" fill="black"/>
<path d="M78.6478 170.632H83.385V169.345H78.625V168.464H84.5267V171.482H79.7894V172.803H82.4065C83.7567 172.803 84.8984 172.656 85.5356 172.403V173.284C84.9287 173.526 83.7681 173.683 82.3572 173.683H78.644V170.635L78.6478 170.632ZM79.0422 174.496H80.2066V176.151H87.7354V177.073H79.0422V174.496ZM86.3169 168.242H87.4699V174.916H86.3169V168.242Z" fill="black"/>
<path d="M89.8125 172.612C89.8125 169.771 91.0566 168.454 92.8278 168.454C94.5991 168.454 95.8317 169.775 95.8317 172.612C95.8317 175.448 94.5877 176.769 92.8278 176.769C91.0679 176.769 89.8125 175.448 89.8125 172.612ZM94.6787 172.612C94.6787 170.348 93.8633 169.406 92.8278 169.406C91.7924 169.406 90.9655 170.348 90.9655 172.612C90.9655 174.875 91.7696 175.817 92.8278 175.817C93.886 175.817 94.6787 174.885 94.6787 172.612ZM97.5196 168.242H98.684V177.189H97.5196V168.242Z" fill="black"/>
<path d="M100.828 172.799V171.878C102.47 171.68 103.517 170.693 103.669 169.352H100.957V168.471H107.394V169.352H104.833C104.811 169.696 104.727 170.031 104.602 170.335L107.72 171.936L107.174 172.711L104.158 171.13C103.46 172.052 102.296 172.67 100.828 172.796V172.799ZM108.732 173.281H109.863V177.073H101.435V173.281H102.565V174.277H108.732V173.281ZM108.732 176.223V175.114H102.565V176.223H108.732ZM109.863 168.242V172.891H108.71V168.242H109.863Z" fill="black"/>
<path d="M113.662 173.387H112.289V172.172H113.662V173.387Z" fill="black"/>
<path d="M125.457 174.862H123.003V177.398H121.862V174.862H119.115V177.398H117.974V174.862H115.531V173.889H125.457V174.862ZM116.066 170.683C116.066 169.185 117.822 168.328 120.489 168.328C123.155 168.328 124.911 169.188 124.911 170.683C124.911 172.179 123.155 173.039 120.489 173.039C117.822 173.039 116.066 172.179 116.066 170.683ZM117.265 170.683C117.265 171.605 118.603 172.107 120.489 172.107C122.374 172.107 123.712 171.605 123.712 170.683C123.712 169.762 122.374 169.25 120.489 169.25C118.603 169.25 117.265 169.752 117.265 170.683Z" fill="black"/>
<path d="M130.708 172.615L133.909 175.977L133.071 176.646L130.359 173.735C129.661 175.462 128.451 176.499 126.938 176.657V175.639C128.625 175.366 129.684 173.304 129.824 170.591H127.112V169.628H129.824V168.16H131V169.628H133.583V170.591H130.988C130.954 171.325 130.859 171.994 130.708 172.611V172.615ZM136.002 168.245V177.192H134.849V168.245H136.002Z" fill="black"/>
<path d="M140.668 173.24H137.922V172.379H142.03C143.391 172.379 144.601 172.284 145.288 172.024V172.885C144.658 173.137 143.414 173.24 141.995 173.24H141.821V174.841H140.668V173.24ZM138.514 170.004C138.514 168.884 139.735 168.266 141.457 168.266C143.179 168.266 144.4 168.884 144.4 170.004C144.4 171.123 143.19 171.751 141.457 171.751C139.723 171.751 138.514 171.133 138.514 170.004ZM147.533 176.196V177.076H138.84V174.363H139.993V176.196H147.533ZM139.644 170.004C139.644 170.621 140.414 170.935 141.461 170.935C142.507 170.935 143.277 170.621 143.277 170.004C143.277 169.386 142.507 169.082 141.461 169.082C140.414 169.082 139.644 169.386 139.644 170.004ZM146.126 173.857V168.242H147.279V175.25H146.126V174.694H143.11V173.854H146.126V173.857Z" fill="black"/>
<path d="M152.406 173.636V172.663C154.269 172.359 155.361 170.464 155.387 168.328L156.54 168.389C156.54 169.184 156.4 169.949 156.123 170.632L159.207 172.85L158.486 173.584L155.679 171.533C154.959 172.663 153.829 173.472 152.41 173.639L152.406 173.636ZM161.949 176.138V177.07H153.279V174.219H154.454V176.138H161.949ZM160.587 170.891H158.19V169.949H160.587V168.242H161.74V174.895H160.587V170.895V170.891Z" fill="black"/>
<path d="M163.578 173.209V172.267C165.148 171.867 165.732 170.328 165.732 168.348L166.84 168.379C166.84 169.072 166.772 169.71 166.62 170.283L168.983 172.263L168.228 172.943L166.26 171.246C165.748 172.294 164.875 172.994 163.582 173.206L163.578 173.209ZM173.284 175.417C173.284 176.739 171.247 177.189 168.873 177.189C166.499 177.189 164.462 176.739 164.462 175.417C164.462 174.096 166.499 173.646 168.873 173.646C171.247 173.646 173.284 174.096 173.284 175.417ZM172.063 175.417C172.063 174.738 170.504 174.496 168.873 174.496C167.242 174.496 165.683 174.738 165.683 175.417C165.683 176.097 167.242 176.339 168.873 176.339C170.504 176.339 172.063 176.097 172.063 175.417ZM170.352 173.175H169.26V168.293H170.352V169.928H172.04V168.242H173.132V173.468H172.04V170.881H170.352V173.175Z" fill="black"/>
<path d="M175.227 168.409H176.391V171.666H179.046C180.396 171.666 181.538 171.519 182.175 171.267V172.168C181.568 172.41 180.408 172.567 178.997 172.567H175.227V168.409ZM175.621 173.543H184.049V177.073H175.621V173.543ZM182.896 176.192V174.431H176.774V176.192H182.896ZM182.896 168.242H184.049V172.997H182.896V168.242Z" fill="black"/>
<path d="M185.969 171.976H195.895V172.782H185.969V171.976ZM186.655 174.949H194.082V174.321H186.632V173.547H195.212V175.683H187.786V176.311H195.386V177.086H186.659V174.949H186.655ZM186.678 168.351H195.185V169.146H187.831V170.413H195.303V171.208H186.678V168.348V168.351Z" fill="black"/>
<path d="M197.168 175.68H201.23C202.592 175.68 203.813 175.544 204.488 175.26V176.223C203.824 176.496 202.592 176.653 201.158 176.653H197.164V175.68H197.168ZM197.505 171.25C197.505 169.584 198.787 168.433 200.578 168.433C202.368 168.433 203.65 169.587 203.65 171.25C203.65 172.912 202.356 174.066 200.578 174.066C198.799 174.066 197.505 172.912 197.505 171.25ZM202.523 171.25C202.523 170.181 201.753 169.365 200.581 169.365C199.409 169.365 198.639 170.181 198.639 171.25C198.639 172.318 199.394 173.124 200.581 173.124C201.769 173.124 202.523 172.318 202.523 171.25ZM205.33 168.242H206.483V177.189H205.33V168.242Z" fill="black"/>
<path d="M220.983 168.242V177.189H219.83V172.854H217.326C216.674 175.264 214.671 176.626 212.043 176.636V175.663C214.137 175.653 215.661 174.667 216.185 172.762H212.043V171.82H216.359C216.382 171.601 216.393 171.379 216.393 171.14V169.526H212.039V168.573H217.542V171.075C217.542 171.359 217.531 171.622 217.497 171.881H219.826V168.246H220.979L220.983 168.242Z" fill="black"/>
<path d="M232.746 174.864H230.292V177.4H229.151V174.864H226.405V177.4H225.263V174.864H222.82V173.891H232.746V174.864ZM232.048 172.812H223.507V168.508H232.048V172.812ZM230.895 169.46H224.656V171.87H230.895V169.46Z" fill="black"/>
<path d="M234.586 168.515H235.762V175.701H238.648C239.592 175.701 240.617 175.523 241.22 175.26V176.213C240.613 176.486 239.6 176.653 238.648 176.653H234.586V168.515ZM242.137 168.242H243.291V177.189L242.137 177.199V168.242Z" fill="black"/>
<path d="M249.832 175.701C250.776 175.701 251.8 175.534 252.404 175.271V176.223C251.797 176.496 250.784 176.653 249.832 176.653H245.781V168.566H251.622V169.519H246.93V172.065H251.448V173.018H246.93V175.701H249.828H249.832ZM254.486 168.242V177.189H253.333V168.242H254.486Z" fill="black"/>
<path d="M125.173 136.984H111.572C108.936 136.984 106.797 138.91 106.797 141.282C106.797 143.654 108.936 145.58 111.572 145.58H113.036V154.97C113.036 157.343 115.175 159.268 117.811 159.268H118.968C121.604 159.268 123.743 157.343 123.743 154.97V145.58H125.173C127.809 145.58 129.948 143.654 129.948 141.282C129.948 138.91 127.809 136.984 125.173 136.984Z" fill="black"/>
<path d="M145.777 142.745C143.956 141.529 141.502 140.922 138.415 140.922C135.585 140.922 133.325 141.471 131.629 142.571C129.938 143.67 128.918 145.196 128.576 147.141C128.512 147.394 128.462 147.783 128.432 148.312C128.402 148.841 128.383 149.446 128.383 150.121C128.383 150.797 128.398 151.422 128.432 151.944C128.462 152.467 128.512 152.852 128.576 153.101C128.94 155.184 129.964 156.805 131.648 157.962C133.332 159.12 135.585 159.7 138.415 159.7C141.608 159.7 144.097 159.116 145.875 157.949C145.97 157.891 146.057 157.829 146.145 157.764C148.769 155.853 147.138 152.002 143.763 152.002H140.41C139.947 152.002 139.576 152.34 139.576 152.753C139.576 153.166 139.215 153.521 138.756 153.535C138.146 153.549 137.838 153.289 137.838 152.753V151.132H144.977C147.002 151.132 148.64 149.654 148.64 147.834C148.553 145.653 147.601 143.957 145.781 142.741L145.777 142.745ZM139.572 149.053H137.835V148.012C137.835 147.599 138.195 147.244 138.654 147.23C139.264 147.216 139.572 147.476 139.572 148.012V149.053Z" fill="black"/>
<path d="M231.121 142.745C229.3 141.529 226.846 140.922 223.759 140.922C220.929 140.922 218.669 141.471 216.973 142.571C215.282 143.67 214.261 145.196 213.92 147.141C213.856 147.394 213.806 147.783 213.776 148.312C213.746 148.841 213.727 149.446 213.727 150.121C213.727 150.797 213.742 151.422 213.776 151.944C213.806 152.467 213.856 152.852 213.92 153.101C214.284 155.184 215.308 156.805 216.992 157.962C218.676 159.12 220.929 159.7 223.759 159.7C226.952 159.7 229.44 159.116 231.219 157.949C231.314 157.891 231.401 157.829 231.488 157.764C234.113 155.853 232.482 152.002 229.107 152.002H225.754C225.291 152.002 224.919 152.34 224.919 152.753C224.919 153.166 224.559 153.521 224.1 153.535C223.489 153.549 223.182 153.289 223.182 152.753V151.132H230.32C232.346 151.132 233.984 149.654 233.984 147.834C233.897 145.653 232.945 143.957 231.124 142.741L231.121 142.745ZM224.915 149.053H223.178V148.012C223.178 147.599 223.539 147.244 223.998 147.23C224.608 147.216 224.915 147.476 224.915 148.012V149.053Z" fill="black"/>
<path d="M169.115 147.145C169.115 145.1 168.307 143.543 166.687 142.472C165.068 141.4 162.781 140.867 159.822 140.867C158.449 140.867 156.943 140.983 155.305 141.215C154.88 141.277 154.448 141.345 154.008 141.424C151.732 141.826 150.143 143.69 150.336 145.769C150.458 147.083 151.925 147.94 153.31 147.507L153.344 147.496C154.512 147.131 155.953 146.947 157.668 146.947C158.032 146.947 158.404 146.96 158.775 146.991C159.151 147.018 159.541 147.053 159.947 147.094C160.182 147.114 160.38 147.199 160.543 147.353C160.702 147.507 160.763 147.749 160.721 148.077C160.228 148.039 159.761 148.008 159.321 147.991C158.882 147.971 158.449 147.964 158.021 147.964C154.956 147.964 152.779 148.387 151.493 149.237C150.207 150.087 149.562 151.436 149.562 153.289V154.678C149.562 155.566 149.756 156.392 150.143 157.153C150.53 157.915 151.182 158.539 152.104 159.021C153.025 159.502 154.281 159.744 155.866 159.744C157.023 159.744 157.945 159.574 158.631 159.239C159.318 158.901 159.815 158.495 160.126 158.024C160.437 157.553 160.592 157.112 160.592 156.706H160.88C160.888 158.365 162.401 159.724 164.245 159.724H165.602C167.613 159.724 169.213 158.208 169.111 156.402V156.368V147.155L169.115 147.145ZM160.08 153.828C160.08 153.887 160.042 154.03 159.966 154.262C159.89 154.494 159.64 154.61 159.212 154.61C158.783 154.61 158.533 154.494 158.457 154.262C158.381 154.03 158.343 153.887 158.343 153.828V152.006C158.343 151.927 158.381 151.78 158.457 151.558C158.533 151.337 158.783 151.224 159.212 151.224C159.64 151.224 159.89 151.337 159.966 151.558C160.042 151.78 160.08 151.931 160.08 152.006V153.828Z" fill="black"/>
<path d="M211.587 142.974C211.182 142.319 210.579 141.803 209.786 141.424C208.993 141.049 207.954 140.861 206.668 140.861C205.382 140.861 204.282 141.154 203.308 141.745C202.333 142.332 201.768 143.227 201.62 144.421H201.332V140.417C201.332 137.976 199.135 136 196.424 136C193.704 136 191.504 137.99 191.516 140.438L191.595 154.877C191.61 157.304 193.799 159.263 196.496 159.263C199.2 159.263 201.396 157.29 201.396 154.853V148.528C201.396 148.47 201.434 148.326 201.51 148.094C201.586 147.862 201.836 147.746 202.265 147.746C202.693 147.746 202.944 147.862 203.019 148.094C203.095 148.326 203.133 148.47 203.133 148.528V154.966C203.133 157.338 205.272 159.263 207.908 159.263C210.544 159.263 212.684 157.338 212.684 154.966V147.862C212.661 146.937 212.577 146.053 212.426 145.213C212.274 144.373 211.997 143.626 211.591 142.97L211.587 142.974Z" fill="black"/>
<path d="M98.8236 143.851C98.5202 143.755 98.2092 143.677 97.8944 143.609C93.0395 142.608 88.1998 145.343 87.0885 149.715C85.9772 154.085 89.0153 158.441 93.8739 159.441C95.2507 159.724 96.6238 159.704 97.9095 159.434C96.8362 160.789 95.52 161.574 95.52 161.574C99.7756 160.697 103.341 157.785 104.547 153.778C104.574 153.699 104.596 153.621 104.619 153.539C104.638 153.47 104.657 153.402 104.672 153.334C104.687 153.266 104.706 153.197 104.721 153.129C105.624 149.115 103.053 145.158 98.8198 143.851H98.8236Z" fill="#FFD72E"/>
<path d="M91.0177 150.603C91.0177 150.296 90.7409 150.047 90.3995 150.047C90.058 150.047 89.7812 150.296 89.7812 150.603V151.156C89.7812 151.464 90.058 151.713 90.3995 151.713C90.7409 151.713 91.0177 151.464 91.0177 151.156V150.603Z" fill="white"/>
<path d="M95.0021 150.603C95.0021 150.296 94.7253 150.047 94.3839 150.047C94.0424 150.047 93.7656 150.296 93.7656 150.603V151.156C93.7656 151.464 94.0424 151.713 94.3839 151.713C94.7253 151.713 95.0021 151.464 95.0021 151.156V150.603Z" fill="white"/>
<path d="M90.3984 153.238C90.3984 153.238 90.4364 154.989 92.3935 154.989C94.3506 154.989 94.3885 153.238 94.3885 153.238" stroke="white" stroke-width="1.71" stroke-miterlimit="10" stroke-linecap="round"/>
<path d="M250.456 140.908C250.456 140.908 250.452 140.908 250.448 140.908C250.444 140.908 250.437 140.908 250.433 140.908C250.065 140.881 249.754 140.867 249.5 140.867C248.362 140.867 247.433 141.092 246.701 141.546C245.973 142 245.4 142.543 244.979 143.182C244.562 143.82 244.273 144.431 244.11 145.018C243.951 145.605 243.868 146.035 243.868 146.305H243.61C243.602 145.977 243.485 145.189 243.321 144.325C242.995 142.591 241.323 141.328 239.369 141.328H239.259C236.95 141.328 235.087 143.025 235.118 145.103C235.159 148.07 235.197 152.176 235.22 155.208C235.239 157.461 237.268 159.277 239.768 159.283C242.294 159.29 244.349 157.45 244.349 155.173V152.033C244.349 151.494 244.535 151.077 244.911 150.787C245.286 150.497 245.741 150.295 246.276 150.179C246.811 150.063 247.315 150.005 247.786 150.005C248.229 150.005 248.624 150.033 248.977 150.084C249.106 150.101 249.227 150.125 249.345 150.149C249.618 150.19 249.894 150.214 250.179 150.214C250.346 150.214 250.513 150.207 250.68 150.19C253.304 149.964 255.36 147.974 255.36 145.551C255.36 143.127 253.187 141.031 250.452 140.905L250.456 140.908Z" fill="black"/>
<path d="M189.004 143.682C188.178 142.768 187.009 142.068 185.5 141.583C183.99 141.102 182.193 140.859 180.114 140.859C178.335 140.859 176.716 141.102 175.259 141.583C173.803 142.064 172.627 142.774 171.739 143.71C170.848 144.645 170.363 145.778 170.275 147.11C170.253 147.359 170.237 147.751 170.226 148.28C170.215 148.813 170.211 149.424 170.211 150.117C170.211 150.81 170.215 151.462 170.226 152.011C170.237 152.561 170.253 152.971 170.275 153.24C170.363 154.609 170.848 155.777 171.739 156.743C172.627 157.709 173.803 158.439 175.259 158.941C176.716 159.443 178.335 159.692 180.114 159.692C183.308 159.692 185.796 159.119 187.575 157.972C189.353 156.825 190.245 155.227 190.245 153.182C190.245 151.728 188.936 150.55 187.32 150.55H182.488C181.821 150.55 181.278 151.039 181.278 151.639V151.766C181.278 152.179 180.918 152.534 180.459 152.547C179.849 152.561 179.541 152.302 179.541 151.766V148.526C179.541 148.113 179.902 147.758 180.361 147.745C180.971 147.731 181.278 147.99 181.278 148.526C181.278 149.127 181.821 149.615 182.488 149.615H187.332C188.944 149.615 190.249 148.441 190.249 146.99C190.249 145.696 189.835 144.594 189.012 143.676L189.004 143.682Z" fill="black"/>
</svg>
